<?xml version='1.0' encoding='UTF-8' ?>
<svg xmlns='http://www.w3.org/2000/svg' xmlns:xlink='http://www.w3.org/1999/xlink' viewBox='0 0 1339.20 136.80'><g transform="translate(200,200)" id="arc_g"><path d="M53.273772835862374,-107.52629970306302A120,120,0,1,1,-55.677065795132606,-106.30176077772407L-53.35718805366875,-101.8725207453189A115,115,0,1,0,51.05403230103477,-103.04603721543539Z" style="fill: rgb(189, 240, 255);"></path><path d="M53.273772835862374,-107.52629970306302A120,120,0,1,1,-55.29101185472686,106.50307041621126L-52.98721969411324,102.06544248220246A115,115,0,1,0,51.05403230103477,-103.04603721543539Z" style="fill: rgb(221, 242, 255);"></path><path d="M53.273772835862374,-107.52629970306302A120,120,0,0,1,92.83951901939494,76.03172829975264L88.97120572692015,72.86373962059628A115,115,0,0,0,51.05403230103477,-103.04603721543539Z" style="fill: rgb(255, 240, 255);"></path><path d="M53.273772835862374,-107.52629970306302A120,120,0,0,1,119.52193337259565,10.700815056658213L114.54185281540417,10.254947762630787A115,115,0,0,0,51.05403230103477,-103.04603721543539Z" style="fill: rgb(255, 235, 209);"></path><path d="M53.273772835862374,-107.52629970306302A120,120,0,0,1,113.94161335121699,-37.64716120668027L109.19404612824961,-36.07852948973527A115,115,0,0,0,51.05403230103477,-103.04603721543539Z" style="fill: rgb(255, 228, 155);"></path><path d="M53.273772835862374,-107.52629970306302A120,120,0,0,1,95.83129305663823,-72.22439526290769L91.83832251261164,-69.21504546028655A115,115,0,0,0,51.05403230103477,-103.04603721543539Z" style="fill: rgb(255, 207, 73);"></path><path d="M53.273772835862374,-107.52629970306302A120,120,0,0,1,72.47856724578251,-95.63920372942563L69.45862694387492,-91.65423690736624A115,115,0,0,0,51.05403230103477,-103.04603721543539Z" style="fill: rgb(255, 190, 40);"></path></g></svg>
